<svg width="40.000000" height="40.000000" viewBox="0 0 40 40" fill="none" xmlns="http://www.w3.org/2000/svg" xmlns:xlink="http://www.w3.org/1999/xlink">
	<desc>
			Created with Pixso.
	</desc>
	<defs>
		<clipPath id="clip51_9877">
			<rect id="Coinbase" width="40.000000" height="40.000000" fill="white" fill-opacity="0"/>
		</clipPath>
	</defs>
	<rect id="Coinbase" width="40.000000" height="40.000000" fill="#FFFFFF" fill-opacity="0"/>
	<g clip-path="url(#clip51_9877)">
		<path id="Vector" d="M40 20C40 31.04 31.04 40 20 40C8.95 40 0 31.04 0 20C0 8.95 8.95 0 20 0C31.04 0 40 8.95 40 20Z" fill="#0052FF" fill-opacity="1.000000" fill-rule="evenodd"/>
		<path id="Vector" d="M5.93 20C5.93 27.76 12.23 34.06 20 34.06C27.76 34.06 34.06 27.76 34.06 20C34.06 12.23 27.76 5.93 20 5.93C12.23 5.93 5.93 12.23 5.93 20ZM16.4 15.46C15.88 15.46 15.46 15.88 15.46 16.4L15.46 23.59C15.46 24.11 15.88 24.53 16.4 24.53L23.59 24.53C24.11 24.53 24.53 24.11 24.53 23.59L24.53 16.4C24.53 15.88 24.11 15.46 23.59 15.46L16.4 15.46Z" fill="#FFFFFF" fill-opacity="1.000000" fill-rule="evenodd"/>
	</g>
</svg>
