<svg width="20.000000" height="20.000000" viewBox="0 0 20 20" fill="none" xmlns="http://www.w3.org/2000/svg" xmlns:xlink="http://www.w3.org/1999/xlink">
	<desc>
			Created with Pixso.
	</desc>
	<defs/>
	<path id="Vector (Stroke)" d="M6.25 3.12C6.25 2.78 6.52 2.5 6.87 2.5L16.87 2.5C17.22 2.5 17.5 2.78 17.5 3.12L17.5 13.12C17.5 13.46 17.22 13.75 16.87 13.75L13.12 13.75C12.77 13.75 12.5 13.46 12.5 13.12C12.5 12.78 12.77 12.5 13.12 12.5L16.25 12.5L16.25 3.75L7.5 3.75L7.5 6.87C7.5 7.21 7.22 7.5 6.87 7.5C6.52 7.5 6.25 7.21 6.25 6.87L6.25 3.12Z" fill="#FFFFFF" fill-opacity="1.000000" fill-rule="evenodd"/>
	<path id="Vector (Stroke)" d="M2.5 6.87C2.5 6.53 2.77 6.25 3.12 6.25L13.12 6.25C13.47 6.25 13.75 6.53 13.75 6.87L13.75 16.87C13.75 17.21 13.47 17.5 13.12 17.5L3.12 17.5C2.77 17.5 2.5 17.21 2.5 16.87L2.5 6.87ZM3.75 7.5L3.75 16.25L12.5 16.25L12.5 7.5L3.75 7.5Z" fill="#FFFFFF" fill-opacity="1.000000" fill-rule="evenodd"/>
</svg>
