<svg width="40.314453" height="37.394531" viewBox="0 0 40.3145 37.3945" fill="none" xmlns="http://www.w3.org/2000/svg" xmlns:xlink="http://www.w3.org/1999/xlink">
	<desc>
			Created with Pixso.
	</desc>
	<defs/>
	<path id="Vector" d="M38.16 0.15L22.55 11.74L25.44 4.91L38.16 0.15Z" fill="#E2761B" fill-opacity="1.000000" fill-rule="nonzero"/>
	<path id="Vector" d="M22.55 11.74L25.44 4.91L38.16 0.15L22.55 11.74Z" stroke="#E2761B" stroke-opacity="1.000000" stroke-width="0.312500" stroke-linejoin="round"/>
	<path id="Vector" d="M2.13 0.15L17.61 11.85L14.86 4.91L2.13 0.15Z" fill="#E4761B" fill-opacity="1.000000" fill-rule="nonzero"/>
	<path id="Vector" d="M17.61 11.85L14.86 4.91L2.13 0.15L17.61 11.85Z" stroke="#E4761B" stroke-opacity="1.000000" stroke-width="0.312500" stroke-linejoin="round"/>
	<path id="Vector" d="M32.54 27.02L28.39 33.39L37.28 35.84L39.84 27.16L32.54 27.02Z" fill="#E4761B" fill-opacity="1.000000" fill-rule="nonzero"/>
	<path id="Vector" d="M28.39 33.39L37.28 35.84L39.84 27.16L32.54 27.02L28.39 33.39Z" stroke="#E4761B" stroke-opacity="1.000000" stroke-width="0.312500" stroke-linejoin="round"/>
	<path id="Vector" d="M0.48 27.16L3.02 35.84L11.92 33.39L7.76 27.02L0.48 27.16Z" fill="#E4761B" fill-opacity="1.000000" fill-rule="nonzero"/>
	<path id="Vector" d="M3.02 35.84L11.92 33.39L7.76 27.02L0.48 27.16L3.02 35.84Z" stroke="#E4761B" stroke-opacity="1.000000" stroke-width="0.312500" stroke-linejoin="round"/>
	<path id="Vector" d="M11.41 16.26L8.94 20.01L17.77 20.4L17.45 10.91L11.41 16.26Z" fill="#E4761B" fill-opacity="1.000000" fill-rule="nonzero"/>
	<path id="Vector" d="M8.94 20.01L17.77 20.4L17.45 10.91L11.41 16.26L8.94 20.01Z" stroke="#E4761B" stroke-opacity="1.000000" stroke-width="0.312500" stroke-linejoin="round"/>
	<path id="Vector" d="M28.87 16.26L22.75 10.8L22.55 20.4L31.37 20.01L28.87 16.26Z" fill="#E4761B" fill-opacity="1.000000" fill-rule="nonzero"/>
	<path id="Vector" d="M22.75 10.8L22.55 20.4L31.37 20.01L28.87 16.26L22.75 10.8Z" stroke="#E4761B" stroke-opacity="1.000000" stroke-width="0.312500" stroke-linejoin="round"/>
	<path id="Vector" d="M11.91 33.39L17.22 30.8L12.64 27.23L11.91 33.39Z" fill="#E4761B" fill-opacity="1.000000" fill-rule="nonzero"/>
	<path id="Vector" d="M17.22 30.8L12.64 27.23L11.91 33.39L17.22 30.8Z" stroke="#E4761B" stroke-opacity="1.000000" stroke-width="0.312500" stroke-linejoin="round"/>
	<path id="Vector" d="M23.07 30.8L28.39 33.39L27.65 27.23L23.07 30.8Z" fill="#E4761B" fill-opacity="1.000000" fill-rule="nonzero"/>
	<path id="Vector" d="M28.39 33.39L27.65 27.23L23.07 30.8L28.39 33.39Z" stroke="#E4761B" stroke-opacity="1.000000" stroke-width="0.312500" stroke-linejoin="round"/>
	<path id="Vector" d="M28.39 33.39L23.07 30.8L23.49 34.27L23.45 35.73L28.39 33.39Z" fill="#D7C1B3" fill-opacity="1.000000" fill-rule="nonzero"/>
	<path id="Vector" d="M23.07 30.8L23.49 34.27L23.45 35.73L28.39 33.39L23.07 30.8Z" stroke="#D7C1B3" stroke-opacity="1.000000" stroke-width="0.312500" stroke-linejoin="round"/>
	<path id="Vector" d="M11.92 33.39L16.86 35.73L16.83 34.27L17.22 30.8L11.92 33.39Z" fill="#D7C1B3" fill-opacity="1.000000" fill-rule="nonzero"/>
	<path id="Vector" d="M16.86 35.73L16.83 34.27L17.22 30.8L11.92 33.39L16.86 35.73Z" stroke="#D7C1B3" stroke-opacity="1.000000" stroke-width="0.312500" stroke-linejoin="round"/>
	<path id="Vector" d="M16.94 24.93L12.51 23.63L15.63 22.21L16.94 24.93Z" fill="#233447" fill-opacity="1.000000" fill-rule="nonzero"/>
	<path id="Vector" d="M12.51 23.63L15.63 22.21L16.94 24.93L12.51 23.63Z" stroke="#233447" stroke-opacity="1.000000" stroke-width="0.312500" stroke-linejoin="round"/>
	<path id="Vector" d="M23.35 24.93L24.65 22.21L27.79 23.63L23.35 24.93Z" fill="#233447" fill-opacity="1.000000" fill-rule="nonzero"/>
	<path id="Vector" d="M24.65 22.21L27.79 23.63L23.35 24.93L24.65 22.21Z" stroke="#233447" stroke-opacity="1.000000" stroke-width="0.312500" stroke-linejoin="round"/>
	<path id="Vector" d="M11.91 33.39L12.67 27.02L7.76 27.16L11.91 33.39Z" fill="#CD6116" fill-opacity="1.000000" fill-rule="nonzero"/>
	<path id="Vector" d="M12.67 27.02L7.76 27.16L11.91 33.39L12.67 27.02Z" stroke="#CD6116" stroke-opacity="1.000000" stroke-width="0.312500" stroke-linejoin="round"/>
	<path id="Vector" d="M27.63 27.02L28.39 33.39L32.54 27.16L27.63 27.02Z" fill="#CD6116" fill-opacity="1.000000" fill-rule="nonzero"/>
	<path id="Vector" d="M28.39 33.39L32.54 27.16L27.63 27.02L28.39 33.39Z" stroke="#CD6116" stroke-opacity="1.000000" stroke-width="0.312500" stroke-linejoin="round"/>
	<path id="Vector" d="M31.37 20.01L22.55 20.4L23.37 24.94L24.67 22.21L27.81 23.63L31.37 20.01Z" fill="#CD6116" fill-opacity="1.000000" fill-rule="nonzero"/>
	<path id="Vector" d="M22.55 20.4L23.37 24.94L24.67 22.21L27.81 23.63L31.37 20.01L22.55 20.4Z" stroke="#CD6116" stroke-opacity="1.000000" stroke-width="0.312500" stroke-linejoin="round"/>
	<path id="Vector" d="M12.51 23.63L15.65 22.21L16.94 24.94L17.77 20.4L8.94 20.01L12.51 23.63Z" fill="#CD6116" fill-opacity="1.000000" fill-rule="nonzero"/>
	<path id="Vector" d="M15.65 22.21L16.94 24.94L17.77 20.4L8.94 20.01L12.51 23.63L15.65 22.21Z" stroke="#CD6116" stroke-opacity="1.000000" stroke-width="0.312500" stroke-linejoin="round"/>
	<path id="Vector" d="M8.94 20.01L12.64 27.23L12.51 23.63L8.94 20.01Z" fill="#E4751F" fill-opacity="1.000000" fill-rule="nonzero"/>
	<path id="Vector" d="M12.64 27.23L12.51 23.63L8.94 20.01L12.64 27.23Z" stroke="#E4751F" stroke-opacity="1.000000" stroke-width="0.312500" stroke-linejoin="round"/>
	<path id="Vector" d="M27.81 23.63L27.65 27.23L31.37 20.01L27.81 23.63Z" fill="#E4751F" fill-opacity="1.000000" fill-rule="nonzero"/>
	<path id="Vector" d="M27.65 27.23L31.37 20.01L27.81 23.63L27.65 27.23Z" stroke="#E4751F" stroke-opacity="1.000000" stroke-width="0.312500" stroke-linejoin="round"/>
	<path id="Vector" d="M17.77 20.4L16.94 24.93L17.97 30.28L18.21 23.24L17.77 20.4Z" fill="#E4751F" fill-opacity="1.000000" fill-rule="nonzero"/>
	<path id="Vector" d="M16.94 24.93L17.97 30.28L18.21 23.24L17.77 20.4L16.94 24.93Z" stroke="#E4751F" stroke-opacity="1.000000" stroke-width="0.312500" stroke-linejoin="round"/>
	<path id="Vector" d="M22.55 20.4L22.13 23.23L22.32 30.28L23.37 24.93L22.55 20.4Z" fill="#E4751F" fill-opacity="1.000000" fill-rule="nonzero"/>
	<path id="Vector" d="M22.13 23.23L22.32 30.28L23.37 24.93L22.55 20.4L22.13 23.23Z" stroke="#E4751F" stroke-opacity="1.000000" stroke-width="0.312500" stroke-linejoin="round"/>
	<path id="Vector" d="M23.37 24.94L22.32 30.28L23.07 30.8L27.65 27.23L27.81 23.63L23.37 24.94Z" fill="#F6851B" fill-opacity="1.000000" fill-rule="nonzero"/>
	<path id="Vector" d="M22.32 30.28L23.07 30.8L27.65 27.23L27.81 23.63L23.37 24.94L22.32 30.28Z" stroke="#F6851B" stroke-opacity="1.000000" stroke-width="0.312500" stroke-linejoin="round"/>
	<path id="Vector" d="M12.51 23.63L12.64 27.23L17.22 30.8L17.97 30.28L16.94 24.94L12.51 23.63Z" fill="#F6851B" fill-opacity="1.000000" fill-rule="nonzero"/>
	<path id="Vector" d="M12.64 27.23L17.22 30.8L17.97 30.28L16.94 24.94L12.51 23.63L12.64 27.23Z" stroke="#F6851B" stroke-opacity="1.000000" stroke-width="0.312500" stroke-linejoin="round"/>
	<path id="Vector" d="M23.45 35.73L23.49 34.27L23.1 33.92L17.19 33.92L16.83 34.27L16.86 35.73L11.92 33.39L13.64 34.8L17.14 37.23L23.15 37.23L26.66 34.8L28.39 33.39L23.45 35.73Z" fill="#C0AD9E" fill-opacity="1.000000" fill-rule="nonzero"/>
	<path id="Vector" d="M23.49 34.27L23.1 33.92L17.19 33.92L16.83 34.27L16.86 35.73L11.92 33.39L13.64 34.8L17.14 37.23L23.15 37.23L26.66 34.8L28.39 33.39L23.45 35.73L23.49 34.27Z" stroke="#C0AD9E" stroke-opacity="1.000000" stroke-width="0.312500" stroke-linejoin="round"/>
	<path id="Vector" d="M23.07 30.8L22.32 30.28L17.97 30.28L17.22 30.8L16.83 34.27L17.19 33.92L23.1 33.92L23.49 34.27L23.07 30.8Z" fill="#161616" fill-opacity="1.000000" fill-rule="nonzero"/>
	<path id="Vector" d="M22.32 30.28L17.97 30.28L17.22 30.8L16.83 34.27L17.19 33.92L23.1 33.92L23.49 34.27L23.07 30.8L22.32 30.28Z" stroke="#161616" stroke-opacity="1.000000" stroke-width="0.312500" stroke-linejoin="round"/>
	<path id="Vector" d="M38.82 12.5L40.15 6.1L38.16 0.15L23.07 11.35L28.87 16.26L37.08 18.66L38.9 16.54L38.11 15.98L39.37 14.83L38.4 14.08L39.65 13.12L38.82 12.5Z" fill="#763D16" fill-opacity="1.000000" fill-rule="nonzero"/>
	<path id="Vector" d="M40.15 6.1L38.16 0.15L23.07 11.35L28.87 16.26L37.08 18.66L38.9 16.54L38.11 15.98L39.37 14.83L38.4 14.08L39.65 13.12L38.82 12.5L40.15 6.1Z" stroke="#763D16" stroke-opacity="1.000000" stroke-width="0.312500" stroke-linejoin="round"/>
	<path id="Vector" d="M0.15 6.1L1.49 12.5L0.64 13.12L1.89 14.08L0.94 14.83L2.19 15.98L1.41 16.54L3.21 18.66L11.41 16.26L17.22 11.35L2.13 0.15L0.15 6.1Z" fill="#763D16" fill-opacity="1.000000" fill-rule="nonzero"/>
	<path id="Vector" d="M1.49 12.5L0.64 13.12L1.89 14.08L0.94 14.83L2.19 15.98L1.41 16.54L3.21 18.66L11.41 16.26L17.22 11.35L2.13 0.15L0.15 6.1L1.49 12.5Z" stroke="#763D16" stroke-opacity="1.000000" stroke-width="0.312500" stroke-linejoin="round"/>
	<path id="Vector" d="M37.08 18.66L28.87 16.26L31.37 20.01L27.65 27.23L32.54 27.16L39.84 27.16L37.08 18.66Z" fill="#F6851B" fill-opacity="1.000000" fill-rule="nonzero"/>
	<path id="Vector" d="M28.87 16.26L31.37 20.01L27.65 27.23L32.54 27.16L39.84 27.16L37.08 18.66L28.87 16.26Z" stroke="#F6851B" stroke-opacity="1.000000" stroke-width="0.312500" stroke-linejoin="round"/>
	<path id="Vector" d="M11.41 16.26L3.21 18.66L0.48 27.16L7.76 27.16L12.64 27.23L8.94 20.01L11.41 16.26Z" fill="#F6851B" fill-opacity="1.000000" fill-rule="nonzero"/>
	<path id="Vector" d="M3.21 18.66L0.48 27.16L7.76 27.16L12.64 27.23L8.94 20.01L11.41 16.26L3.21 18.66Z" stroke="#F6851B" stroke-opacity="1.000000" stroke-width="0.312500" stroke-linejoin="round"/>
	<path id="Vector" d="M22.55 20.4L23.07 11.35L25.45 4.91L14.86 4.91L17.22 11.35L17.77 20.4L17.95 23.26L17.97 30.29L22.32 30.29L22.35 23.26L22.55 20.4Z" fill="#F6851B" fill-opacity="1.000000" fill-rule="nonzero"/>
	<path id="Vector" d="M23.07 11.35L25.45 4.91L14.86 4.91L17.22 11.35L17.77 20.4L17.95 23.26L17.97 30.29L22.32 30.29L22.35 23.26L22.55 20.4L23.07 11.35Z" stroke="#F6851B" stroke-opacity="1.000000" stroke-width="0.312500" stroke-linejoin="round"/>
</svg>
