<svg width="40.000000" height="40.000000" viewBox="0 0 40 40" fill="none" xmlns="http://www.w3.org/2000/svg" xmlns:xlink="http://www.w3.org/1999/xlink">
	<desc>
			Created with Pixso.
	</desc>
	<defs>
		<clipPath id="clip49_9989">
			<rect id="WalletConnect" width="40.000000" height="40.000000" fill="white" fill-opacity="0"/>
		</clipPath>
		<radialGradient gradientTransform="translate(0.00012207 20.0006) rotate(0) scale(40 40)" cx="0.000000" cy="0.000000" r="1.000000" id="paint_radial_49_9987_0" gradientUnits="userSpaceOnUse">
			<stop stop-color="#5D9DF6"/>
			<stop offset="1.000000" stop-color="#006FFF"/>
		</radialGradient>
	</defs>
	<rect id="WalletConnect" width="40.000000" height="40.000000" fill="#FFFFFF" fill-opacity="0"/>
	<g clip-path="url(#clip49_9989)">
		<path id="Vector" d="M40 20C40 31.04 31.04 40 20 40C8.95 40 0 31.04 0 20C0 8.95 8.95 0 20 0C31.04 0 40 8.95 40 20Z" fill="url(#paint_radial_49_9987_0)" fill-opacity="1.000000" fill-rule="evenodd"/>
		<path id="Vector" d="M12.55 15.44C16.58 11.51 23.11 11.51 27.13 15.44L27.62 15.92C27.82 16.11 27.82 16.43 27.62 16.63L25.96 18.25C25.86 18.35 25.69 18.35 25.59 18.25L24.93 17.6C22.12 14.86 17.57 14.86 14.76 17.6L14.05 18.29C13.94 18.4 13.78 18.4 13.68 18.29L12.02 16.68C11.82 16.48 11.82 16.16 12.02 15.97L12.55 15.44ZM30.56 18.79L32.04 20.22C32.24 20.42 32.24 20.74 32.04 20.93L25.39 27.43C25.19 27.62 24.86 27.62 24.66 27.43L19.94 22.82C19.9 22.77 19.81 22.77 19.76 22.82L15.05 27.43C14.84 27.62 14.51 27.62 14.32 27.43L7.65 20.93C7.44 20.74 7.44 20.42 7.65 20.22L9.12 18.79C9.33 18.59 9.66 18.59 9.85 18.79L14.57 23.4C14.62 23.44 14.7 23.44 14.75 23.4L19.47 18.79C19.67 18.59 20 18.59 20.19 18.79L24.91 23.4C24.96 23.44 25.05 23.44 25.09 23.4L29.81 18.79C30.03 18.59 30.36 18.59 30.56 18.79Z" fill="#FFFFFF" fill-opacity="1.000000" fill-rule="nonzero"/>
	</g>
</svg>
