<svg width="20.000000" height="20.000000" viewBox="0 0 20 20" fill="current" xmlns="http://www.w3.org/2000/svg" xmlns:xlink="http://www.w3.org/1999/xlink">
	<desc>
			Created with Pixso.
	</desc>
	<defs/>
	<path id="Vector (Stroke)" d="M2.5 10C2.5 9.65 2.77 9.37 3.12 9.37L16.87 9.37C17.22 9.37 17.5 9.65 17.5 10C17.5 10.34 17.22 10.62 16.87 10.62L3.12 10.62C2.77 10.62 2.5 10.34 2.5 10Z" fill="current" fill-opacity="1.000000" fill-rule="evenodd"/>
	<path id="Vector (Stroke)" d="M10.8 3.93C11.05 3.68 11.44 3.68 11.69 3.93L17.31 9.55C17.56 9.8 17.56 10.19 17.31 10.44L11.69 16.06C11.44 16.31 11.05 16.31 10.8 16.06C10.56 15.82 10.56 15.42 10.8 15.18L15.99 10L10.8 4.81C10.56 4.57 10.56 4.17 10.8 3.93Z" fill="current" fill-opacity="1.000000" fill-rule="evenodd"/>
</svg>
